<svg xmlns="http://www.w3.org/2000/svg" viewBox="0 0 92.99 65.38"><defs><style>.cls-1{fill:#4f2c1d;}</style></defs><title>NUEVATIERRA_correo</title><g id="Capa_2" data-name="Capa 2"><g id="Capa_1-2" data-name="Capa 1"><path id="icon_mail" data-name="icon mail" class="cls-1" d="M93,8.17A8.18,8.18,0,0,0,84.81,0H8.17A8.17,8.17,0,0,0,0,8.17v49a8.17,8.17,0,0,0,8.17,8.17H84.81A8.18,8.18,0,0,0,93,57.21ZM5.45,9.3,29,32.72,5.45,56.1ZM52.27,36.69a8.17,8.17,0,0,1-11.56,0h0L9.3,5.45H83.69Zm-19.41-.13,4,4a13.63,13.63,0,0,0,19.26,0l4-4L83.69,59.93H9.3ZM64,32.72,87.54,9.3V56.1Z"/></g></g></svg>