<svg xmlns="http://www.w3.org/2000/svg" viewBox="0 0 89.5 89.5"><defs><style>.cls-1{fill:#4f2c1d;}</style></defs><title>NUEVATIERRA_guardar</title><g id="Capa_2" data-name="Capa 2"><g id="Capa_1-2" data-name="Capa 1"><path class="cls-1" d="M89.5,89.5H0V76.25C0,59.33,31.58,52.5,44.75,52.5S89.5,59.33,89.5,76.25ZM5.5,84H84V76.25C84,65.11,58.23,58,44.75,58S5.5,65.11,5.5,76.25ZM44.75,47.5A23.75,23.75,0,1,1,68.5,23.75,23.77,23.77,0,0,1,44.75,47.5Zm0-42A18.25,18.25,0,1,0,63,23.75,18.27,18.27,0,0,0,44.75,5.5Z"/></g></g></svg>