<svg xmlns="http://www.w3.org/2000/svg" viewBox="0 0 124 96.19"><defs><style>.cls-1{fill:#fff;}.cls-2{fill:#d8d7da;}.cls-3{fill:#97d700;}</style></defs><title>NUEVATIERRA_camioncito</title><g id="Capa_2" data-name="Capa 2"><g id="Capa_1-2" data-name="Capa 1"><circle class="cls-1" cx="98.2" cy="82.17" r="10.02"/><circle class="cls-1" cx="26.05" cy="82.17" r="10.02"/><circle class="cls-2" cx="98.2" cy="82.17" r="4.01"/><circle class="cls-2" cx="26.05" cy="82.17" r="4.01"/><path class="cls-3" d="M104.21,82.17a6,6,0,1,0-6,6A6,6,0,0,0,104.21,82.17Zm-4,0a2,2,0,1,1-2-2A2,2,0,0,1,100.2,82.17Z"/><path class="cls-3" d="M20,82.17a6,6,0,1,0,6-6A6,6,0,0,0,20,82.17Zm4,0a2,2,0,1,1,2,2A2,2,0,0,1,24.05,82.17Z"/><path class="cls-3" d="M4,8a2,2,0,0,0-2,2V82.17a2,2,0,0,0,2,2H14.2a12.07,12.07,0,0,0,5.22,8H10a2,2,0,1,0,0,4H122a2,2,0,0,0,0-4H104.83a12.07,12.07,0,0,0,5.22-8h10.19a2,2,0,0,0,2-2V54.11a2,2,0,0,0-.27-1l-12.59-22-3.44-6a2,2,0,0,0-1.74-1h-22V10a2,2,0,0,0-2-2h-18a2,2,0,0,0-1,.27c-.33-.37-.68-.72-1-1.06A26,26,0,0,0,23.3,8Zm60.12,18a22,22,0,1,1-22-22A22,22,0,0,1,64.13,26.05Zm52.66,26.06H92.19v-18h14.29Zm1.45,14h-4a2,2,0,0,1,0-4h4Zm-8.19,14a12,12,0,0,0-23.71,0H82.17V28.06h20.88l1.14,2h-14a2,2,0,0,0-2,2v22a2,2,0,0,0,2,2h28.06v2h-4a6,6,0,0,0,0,12h4v10Zm-19.87,2a8,8,0,1,1,8,8A8,8,0,0,1,90.18,82.17Zm-57.49,10a12.07,12.07,0,0,0,5.22-8H86.34a12.07,12.07,0,0,0,5.22,8ZM18,82.17a8,8,0,1,1,8,8A8,8,0,0,1,18,82.17Zm-12-14H78.16v12H37.91a12,12,0,0,0-23.71,0H6ZM6,12H20.14A26.05,26.05,0,1,0,64,12H78.16V64.13H6Z"/><path class="cls-3" d="M0,94.19a2,2,0,0,0,2,2H4a2,2,0,1,0,0-4H2A2,2,0,0,0,0,94.19Z"/><path class="cls-3" d="M53.31,33.67a2,2,0,0,0-2.41-3.21l-6.53,4.9L31.57,20.72h0a2,2,0,0,0-3,2.64l14,16a2,2,0,0,0,2.71.28l8-6Z"/></g></g></svg>