<svg xmlns="http://www.w3.org/2000/svg" viewBox="0 0 84.3 84.35"><defs><style>.cls-1{fill:#4f2c1d;}</style></defs><title>NUEVATIERRA_whatsapp</title><g id="Capa_2" data-name="Capa 2"><g id="Capa_1-2" data-name="Capa 1"><path class="cls-1" d="M7.21,63.06,7,62.66A40.82,40.82,0,0,1,1,41.33c0-.61,0-1.22.05-1.82A41.42,41.42,0,0,1,41.27,0l1.4,0A41.47,41.47,0,0,1,84.28,40.29c0,.34,0,.71,0,1.11A41.71,41.71,0,0,1,42.55,82.69h0a41.67,41.67,0,0,1-20-5.16l-.38-.2L0,84.35ZM40.07,77.91h2.69a36.84,36.84,0,0,0,36.76-36.6c0-.85,0-1.76-.12-2.86A36.93,36.93,0,0,0,46.51,5a36.26,36.26,0,0,0-3.9-.21A36.78,36.78,0,0,0,6,37.77c-.12,1.2-.18,2.39-.18,3.55a36,36,0,0,0,6.72,21L7.55,77l15.22-4.85a36.66,36.66,0,0,0,17.38,5.72Z"/><path class="cls-1" d="M52.94,60.29c-1.68,0-4.81-.91-9.85-2.88A41.72,41.72,0,0,1,25.71,42.14a22.84,22.84,0,0,1-3.62-7,12.18,12.18,0,0,1-.5-3.25A10.61,10.61,0,0,1,25,24a2.94,2.94,0,0,1,2.13-1c.31,0,.65,0,1,0s.68,0,1,0l.29,0h.2c.12,0,.45,0,.93,1.14.25.62.62,1.5,1,2.46,1.23,3,2.05,5,2.24,5.31a1,1,0,0,1,.07.93A10,10,0,0,1,33.21,34a2.72,2.72,0,0,1-.29.37l-.47.57c-.35.43-.72.87-1.05,1.2a2.47,2.47,0,0,0-.61,3.33,32.25,32.25,0,0,0,6,7.42,29.34,29.34,0,0,0,8.72,5.34,3.37,3.37,0,0,0,1.5.4,2.47,2.47,0,0,0,1.88-.93c.55-.63,2.63-3.08,3.38-4.15.24-.34.35-.34.42-.34a3,3,0,0,1,.78.2c.66.25,3.92,1.82,5.67,2.67l2,.95a7.46,7.46,0,0,1,.91.47,7.59,7.59,0,0,1-.56,4A9.56,9.56,0,0,1,55.09,60a5.54,5.54,0,0,0-.92.17,4.74,4.74,0,0,1-1.23.17Z"/></g></g></svg>