<svg xmlns="http://www.w3.org/2000/svg" viewBox="0 0 390.36 420.39"><defs><style>.cls-1{fill:#97d700;}.cls-2{fill:#4f2c1d;}.cls-3{fill:#6ba539;}.cls-4{fill:#f3cfb3;}</style></defs><title>NUEVATIERRA_logo</title><g id="Capa_2" data-name="Capa 2"><g id="Capa_1-2" data-name="Capa 1"><path class="cls-1" d="M64,91.26l1.29.07A165,165,0,0,1,106,98.68a108.67,108.67,0,0,1-.35-16.43l-.33-.12c-27-9-55.2.1-74.28,9.45-2.42,23,.15,42.75,7.61,58.75q4.56-2.22,9.26-4a70.57,70.57,0,0,1-7.76-24.86l2.84-.31a67.4,67.4,0,0,0,7.63,24.18c2.06-.72,4.15-1.39,6.26-2-3.57-5.79-5.54-11.73-7.52-18.29l2.73-.82c2,6.63,4,12.61,7.66,18.33,1.21-.31,2.42-.61,3.64-.88a166.9,166.9,0,0,1,.34-49.14Z"/><path class="cls-1" d="M128.72,107.76a171.9,171.9,0,0,1,27.07,16.61,164.19,164.19,0,0,1,26.39-40.52c-11.05-15-30.87-33.92-63.66-42-8.43,19-11.63,38.38-9.55,57.76,2.78.93,5.52,1.94,8.25,3a86.09,86.09,0,0,1,.31-28.22l2.8.55a84.38,84.38,0,0,0,0,28.93c1.73.73,3.46,1.49,5.17,2.29-1.65-8.06-1.64-14.83-1.42-22.62l2.85.07C126.65,92,126.65,99,128.72,107.76Z"/><path class="cls-1" d="M282.83,99.64c2.09-19.38-1.11-38.8-9.54-57.76C240.4,50,220.56,69,209.59,83.9a164.57,164.57,0,0,1,26.57,40.37,172,172,0,0,1,26.93-16.51c2.07-8.72,2.07-15.8,1.84-24.1l2.85-.07c.22,7.8.22,14.56-1.43,22.62,1.72-.8,3.44-1.56,5.18-2.29a84.38,84.38,0,0,0,0-28.93l2.8-.55a86.09,86.09,0,0,1,.31,28.22Q278.67,101,282.83,99.64Z"/><path class="cls-1" d="M353.9,150.72l0-.07-.79-.37c7.44-16,10-35.74,7.57-58.7-34.21-16.78-59.27-14.49-74.57-9.35a108.93,108.93,0,0,1-.35,16.45,165,165,0,0,1,40.78-7.35l1.29-.07.2,1.28a166.53,166.53,0,0,1,.33,49.14c1.21.27,2.41.56,3.61.87,3.67-5.72,5.66-11.69,7.66-18.32l2.73.82c-2,6.56-3.95,12.5-7.51,18.28q3.17.9,6.27,2a67.82,67.82,0,0,0,7.61-24.18l2.83.31a70.48,70.48,0,0,1-7.74,24.85C347.26,147.61,350.6,149.08,353.9,150.72Z"/><path class="cls-1" d="M194.87,71l1-.86.95.86c3.89,3.52,7.5,7.12,10.85,10.75a114.15,114.15,0,0,1,15.6-17c-2.43-9.36-6.8-15.41-12.67-22.83l2.24-1.77c5.61,7.11,10.18,13.39,12.82,22.53q2.67-2.23,5.61-4.41a67.76,67.76,0,0,0-18-25.58l1.88-2.15a70.54,70.54,0,0,1,18.5,26q4.13-2.88,8.79-5.53c-8.34-17.44-24-32.59-46.58-45.06C173.52,18.31,158,33.5,149.59,51.12a112.75,112.75,0,0,1,34.54,30.57Q189.11,76.26,194.87,71Z"/><path class="cls-1" d="M373.18,166.33A112.15,112.15,0,0,0,328,144.51a166.87,166.87,0,0,1-16.66,50.31c-1,1.9-2,3.7-3,5.46h37.6A114.57,114.57,0,0,0,373.18,166.33Z"/><path class="cls-1" d="M63.85,144.51a112.15,112.15,0,0,0-45.22,21.82,113.64,113.64,0,0,0,27.29,33.95H83.49c-1-1.76-2-3.56-3-5.46A166.87,166.87,0,0,1,63.85,144.51Z"/><path class="cls-1" d="M325.43,94.25c-32.24,2-61.85,13-88.06,32.68a167.68,167.68,0,0,1,10.91,34,164.69,164.69,0,0,1,3.35,39.32h53.42c1.26-2.18,2.53-4.47,3.77-6.87A162.85,162.85,0,0,0,325.43,94.25Z"/><path class="cls-1" d="M143.84,160.59A172.32,172.32,0,0,1,154.59,127,161.19,161.19,0,0,0,66.38,94.25,162.93,162.93,0,0,0,83,193.41q1.88,3.6,3.78,6.87h53.36A172,172,0,0,1,143.84,160.59Z"/><path class="cls-1" d="M245.46,161.42A162.86,162.86,0,0,0,195.83,74a163.9,163.9,0,0,0-49.2,87.19,167.92,167.92,0,0,0-3.66,39.1H248.78A161.2,161.2,0,0,0,245.46,161.42Z"/><path class="cls-2" d="M0,410v-1.73H7.24V410Z"/><path class="cls-2" d="M29.86,420.15c-2.23,0-2.33,0-3-1.55l-4.57-10h-1.8l.14.85v9.18h0c0,1.55,0,1.55-2,1.55h-.21V395.71l3.86-.34c5.59,0,5.59,2.57,5.59,6.6,0,3.73-.27,6.37-3.52,6.57L30,420.15Zm-7.55-13.51c3.39,0,3.39-1.32,3.39-4.67s0-4.67-3.39-4.67H20.59v8.5l-.14.84Z"/><path class="cls-2" d="M47.67,419.81a17.22,17.22,0,0,1-4,.58c-4.7,0-4.7-2.44-4.7-9.14s0-9.51,4.7-9.51c3.89,0,3.89,2.67,3.89,7.51l.14,1.83-6.91.17.14.84c0,4.75,0,6.44,2.74,6.44a17.17,17.17,0,0,0,4-.44Zm-2-11.27c0-3.25-.2-5-2-5-2.57,0-2.57,1.76-2.54,5l-.13.85h4.8Z"/><path class="cls-2" d="M57.56,418c1.29.1,2.78.34,4.06.34,1.63,0,2-1.94,1.9-4,0-1-1.08-1.9-2.4-2.91-1.83-1.39-3.73-3-3.73-5.11,0-2.58,0-4.54,4.06-4.54l3.22.47c0,1.46-.78,1.63-1.69,1.46l-1.39-.2c-2.3,0-2.34,1.11-2.34,2.57,0,1.08,1.29,2.3,2.64,3.38,1.87,1.43,3.66,2.82,3.66,4.58,0,2.77-.17,6.26-3.89,6.26a33.76,33.76,0,0,1-4.1-.51Z"/><path class="cls-2" d="M79.84,420.39c-4.44,0-4.44-2.67-4.44-9.41s0-9.24,4.44-9.24l2.81.44c0,1.45-.78,1.62-1.69,1.45l-1.12-.1c-2.47,0-2.47,2-2.47,7.45s0,7.62,2.47,7.62l2.94-.34v1.55Z"/><path class="cls-2" d="M98.67,407.39v-1.9c0-1.79-.21-2.06-1.87-2.06l-1.69.34a3.44,3.44,0,0,1-.51.07c-.67,0-1.18-.34-1.18-1.53l3.38-.57c3.8,0,3.8,1.08,3.8,4.36v14c-2,0-2.07,0-2.07-1.69-1,.64-1.9,1.93-3.11,1.93-2.85,0-2.85-.91-2.85-8.53,0-3.12,3.12-3.62,6.1-3.62h.13Zm-.14,8.73V411l.14-.85h-.14c-2.23,0-4,.17-4,1.46,0,7,.07,7,.81,7,1.25,0,2.17-1.09,3.29-1.63Z"/><path class="cls-2" d="M114.28,420.32c-3.32,0-3.32-1.79-3.32-7.89v-7.78l.13-.85h-1.45V402h1.45l-.13-1.18V399.3c2,0,2,0,2,1.56l-.14,1.11h3.11c0,1.59,0,1.83-1.62,1.83h-1.49l.14.85v7.78c0,4.57,0,6.17,1.35,6.17h2.3v1.55Z"/><path class="cls-2" d="M131.14,407.39v-1.9c0-1.79-.21-2.06-1.87-2.06l-1.69.34a3.44,3.44,0,0,1-.51.07c-.67,0-1.18-.34-1.18-1.53l3.38-.57c3.8,0,3.8,1.08,3.8,4.36v14c-2,0-2.07,0-2.07-1.69-1.05.64-1.9,1.93-3.11,1.93-2.85,0-2.85-.91-2.85-8.53,0-3.12,3.12-3.62,6.1-3.62h.13Zm-.14,8.73V411l.14-.85H131c-2.23,0-4,.17-4,1.46,0,7,.07,7,.81,7,1.25,0,2.17-1.09,3.29-1.63Z"/><path class="cls-2" d="M158,411.11c0-6.6,0-7.58-2.23-7.58l-3.15,1.05.13.85v14.72c-2,0-2,0-2-1.55l0-7.49c0-4.87.27-7.58-2.2-7.58l-3.18,1.19.14.84v14.59c-2,0-2,0-2-1.55V402c2,0,2,0,2,1l3-1.25a4.71,4.71,0,0,1,3.59,1.42l3.63-1.42c4.23,0,4.26,1,4.26,9.41v9c-2,0-2,0-2-1.55Z"/><path class="cls-2" d="M170.18,411c0-6.74,0-9.24,4.64-9.24s4.6,2.53,4.6,9.24,0,9.41-4.6,9.41S170.18,417.72,170.18,411Zm7.24.78c0-6,.17-8.23-2.6-8.23-2.61,0-2.65,2-2.65,7.08,0,5.68-.1,8,2.65,8C177.35,418.6,177.42,416.6,177.42,411.76Z"/><path class="cls-2" d="M189.44,418c1.29.1,2.78.34,4.07.34,1.62,0,2-1.94,1.89-4,0-1-1.08-1.9-2.4-2.91-1.83-1.39-3.73-3-3.73-5.11,0-2.58,0-4.54,4.07-4.54l3.21.47c0,1.46-.78,1.63-1.69,1.46l-1.39-.2c-2.3,0-2.33,1.11-2.33,2.57,0,1.08,1.28,2.3,2.64,3.38,1.86,1.43,3.65,2.82,3.65,4.58,0,2.77-.17,6.26-3.89,6.26a33.76,33.76,0,0,1-4.1-.51Z"/><path class="cls-2" d="M220.8,395.37c2,0,2,0,2,1.56v23.36c-2,0-2,0-2-1.56Z"/><path class="cls-2" d="M232.92,411c0-6.74,0-9.24,4.64-9.24s4.6,2.53,4.6,9.24,0,9.41-4.6,9.41S232.92,417.72,232.92,411Zm7.24.78c0-6,.17-8.23-2.6-8.23-2.61,0-2.64,2-2.64,7.08,0,5.68-.11,8,2.64,8C240.1,418.6,240.16,416.6,240.16,411.76Z"/><path class="cls-2" d="M272.8,411.11c0-6.56,0-7.58-2.13-7.58l-3.32,1.19.14.84v14.59c-2,0-2,0-2-1.55V402c2,0,2,0,2,1l3.05-1.25c4.26,0,4.26,1.49,4.26,9.41v9c-2,0-2,0-2-1.55Z"/><path class="cls-2" d="M291,407.39v-1.9c0-1.79-.2-2.06-1.86-2.06l-1.69.34a3.63,3.63,0,0,1-.51.07c-.68,0-1.19-.34-1.19-1.53l3.39-.57c3.79,0,3.79,1.08,3.79,4.36v14c-2,0-2.06,0-2.06-1.69-1.05.64-1.9,1.93-3.12,1.93-2.84,0-2.84-.91-2.84-8.53,0-3.12,3.11-3.62,6.09-3.62h.14Zm-.13,8.73V411l.13-.85h-.13c-2.24,0-4,.17-4,1.46,0,7,.07,7,.82,7,1.25,0,2.16-1.09,3.28-1.63Z"/><path class="cls-2" d="M306.63,420.32c-3.32,0-3.32-1.79-3.32-7.89v-7.78l.14-.85H302V402h1.46l-.14-1.18V399.3c2,0,2,0,2,1.56l-.14,1.11h3.12c0,1.59,0,1.83-1.63,1.83h-1.49l.14.85v7.78c0,4.57,0,6.17,1.35,6.17H309v1.55Z"/><path class="cls-2" d="M321.83,420.39c-4.26,0-4.26-2.71-4.26-9.41v-9c2,0,2,0,2,1.56v7.38c0,4.87,0,7.69,2.14,7.69l3.35-1.56-.17-.85V402c2,0,2,0,2,1.56v16.62c-2,0-2,0-2-1.35Z"/><path class="cls-2" d="M337.34,402c2,0,2,0,2,1v.37l2.71-1.62a7.93,7.93,0,0,1,1.69.23c0,1.56,0,1.56-1.69,1.56l-2.88,1.59.17.85v14.18c-2,0-2,0-2-1.55Z"/><path class="cls-2" d="M358.1,407.39v-1.9c0-1.79-.21-2.06-1.87-2.06l-1.69.34a3.44,3.44,0,0,1-.51.07c-.68,0-1.18-.34-1.18-1.53l3.38-.57c3.8,0,3.8,1.08,3.8,4.36v14c-2,0-2.07,0-2.07-1.69-1,.64-1.9,1.93-3.12,1.93-2.84,0-2.84-.91-2.84-8.53,0-3.12,3.12-3.62,6.1-3.62h.13Zm-.14,8.73V411l.14-.85H358c-2.23,0-4,.17-4,1.46,0,7,.07,7,.81,7,1.25,0,2.17-1.09,3.29-1.63Z"/><path class="cls-2" d="M370.66,395.37c2,0,2,0,2,1.56v23.36c-2,0-2,0-2-1.56Z"/><path class="cls-2" d="M383.12,410v-1.73h7.24V410Z"/><path class="cls-3" d="M65.25,152.07c.87,33.77-12.33,32.32-20.56,32.32-14,0-25.74-17.61-26-18.07h0l0,.06a113.58,113.58,0,0,0,27.26,33.9H83.49c-1-1.76-2-3.56-3-5.46A167,167,0,0,1,65.25,152.07Z"/><path class="cls-3" d="M143.84,160.59c1-4.61,2.24-9.63,3.86-14.92-2,4.48-4.52,9.69-7.52,15.21a36.52,36.52,0,0,1-31.7,19h0A36.64,36.64,0,0,1,74,156.56c-4.23-10.85-8.18-22.7-8.18-29a46.49,46.49,0,0,0-.39,6.88,163.93,163.93,0,0,0,17.57,59q1.88,3.6,3.78,6.87h53.36A172,172,0,0,1,143.84,160.59Z"/><path class="cls-3" d="M245.46,161.42a164.81,164.81,0,0,0-6.6-23.19c-3.45,55.71-82.09,53.39-85.67,0a169.68,169.68,0,0,0-6.56,23,167.92,167.92,0,0,0-3.66,39.1H248.78A161.2,161.2,0,0,0,245.46,161.42Z"/><path class="cls-3" d="M326.4,134.39a49.38,49.38,0,0,0-.39-6.88c0,6.35-3.95,18.2-8.18,29.05a36.64,36.64,0,0,1-34.5,23.34h0a36.52,36.52,0,0,1-31.7-19c-2.66-4.89-4.92-9.53-6.8-13.64,1.43,4.85,2.57,9.46,3.45,13.72a164.69,164.69,0,0,1,3.35,39.32h53.42c1.26-2.18,2.53-4.47,3.77-6.87A163.65,163.65,0,0,0,326.4,134.39Z"/><path class="cls-3" d="M373.15,166.38l0-.06h0c-.31.47-12,18.07-26,18.07-8.23,0-21.43,1.45-20.56-32.32a167,167,0,0,1-15.26,42.75c-1,1.9-2,3.7-3,5.46h37.6A114.38,114.38,0,0,0,373.15,166.38Z"/><path class="cls-3" d="M348.49,135.39a74.09,74.09,0,0,1-4.64,10.92A110.46,110.46,0,0,1,354.38,151l0-.08-1.28-.6a83.1,83.1,0,0,0,5.2-14.77C356.19,137.89,352.15,137,348.49,135.39Z"/><path class="cls-3" d="M339.66,124.23l2,.61c-.47-8-1.25-20.7-1.77-25.3-3.47-.06-10.26,0-10.91,0a166,166,0,0,1-.6,42.14c1.21.27,2.41.56,3.61.87C335.67,136.83,337.66,130.86,339.66,124.23Z"/><path class="cls-3" d="M345.91,134.14c-1.56-.83-2.92-1.68-3.85-2.28,0,0-.1-1.93-.27-4.86a68.86,68.86,0,0,1-6.91,16.33q3.17.9,6.27,2A70.67,70.67,0,0,0,345.91,134.14Z"/><path class="cls-3" d="M283.39,91.16l-8,3.09c-.16,2.76-.43,5.57-.83,8.41q4.08-1.62,8.24-3C283.13,96.81,283.31,94,283.39,91.16Z"/><path class="cls-3" d="M266.35,106.21c1.72-.8,3.44-1.56,5.18-2.29q.68-4.32,1-8.52c-1.71.68-3.35,1.33-4.9,2A72.06,72.06,0,0,1,266.35,106.21Z"/><path class="cls-3" d="M263.09,107.76a68.44,68.44,0,0,0,1.54-9.2c-10.62,4.31-17.17,7.26-20.91,9a5.84,5.84,0,0,1-7.08-1.64,349.2,349.2,0,0,0-23.58-26.5c-1.25,1.52-2.4,3-3.47,4.46a164.57,164.57,0,0,1,26.57,40.37A172,172,0,0,1,263.09,107.76Z"/><path class="cls-3" d="M148.09,107.58c-3.74-1.76-10.3-4.71-20.92-9a70.44,70.44,0,0,0,1.55,9.2,171.9,171.9,0,0,1,27.07,16.61,164.19,164.19,0,0,1,26.39-40.52q-1.59-2.16-3.43-4.41a349.2,349.2,0,0,0-23.58,26.5A5.85,5.85,0,0,1,148.09,107.58Z"/><path class="cls-3" d="M120.28,103.92c1.73.73,3.46,1.49,5.17,2.29a72,72,0,0,1-1.24-8.85l-4.9-2Q119.61,99.6,120.28,103.92Z"/><path class="cls-3" d="M109,99.64c2.78.93,5.52,1.94,8.25,3-.41-2.84-.67-5.65-.83-8.41l-8-3.09C108.49,94,108.67,96.81,109,99.64Z"/><path class="cls-3" d="M63.41,141.68a166,166,0,0,1-.59-42.14c-.65,0-7.44-.06-10.91,0-.52,4.6-1.3,17.24-1.77,25.28l2-.59c2,6.63,4,12.61,7.66,18.33C61,142.25,62.19,142,63.41,141.68Z"/><path class="cls-3" d="M33.42,135.46a84,84,0,0,0,5.25,14.87q4.56-2.22,9.26-4a73.37,73.37,0,0,1-4.64-10.91C39.61,137,35.56,137.89,33.42,135.46Z"/><path class="cls-3" d="M56.9,143.34A68.67,68.67,0,0,1,50,127.11c-.16,2.87-.26,4.75-.26,4.75-.94.6-2.31,1.46-3.88,2.29a69.32,69.32,0,0,0,4.77,11.18C52.7,144.61,54.79,143.94,56.9,143.34Z"/><path class="cls-3" d="M184.13,81.69q5-5.43,10.74-10.69l.57-.52c-13.92-16-35.11-25.5-41-28a80.22,80.22,0,0,0-4.81,8.6A112.75,112.75,0,0,1,184.13,81.69Z"/><path class="cls-3" d="M231.23,58.26A69.81,69.81,0,0,0,226,48c-1.73.92-3.57,1.95-5.48,3.09a48.72,48.72,0,0,1,5.07,11.63Q228.29,60.44,231.23,58.26Z"/><path class="cls-3" d="M207.63,81.75a114.15,114.15,0,0,1,15.6-17,46.45,46.45,0,0,0-5.1-12.23A97.53,97.53,0,0,0,196.3,70.56l.48.44C200.67,74.52,204.28,78.12,207.63,81.75Z"/><path class="cls-3" d="M233.62,56.55q4.13-2.88,8.79-5.53a75.81,75.81,0,0,0-4.83-8.57c-1.74.72-5,2.11-9,4.18A72.87,72.87,0,0,1,233.62,56.55Z"/><polygon class="cls-4" points="378.6 207.88 12.35 207.88 52.41 287.33 12.35 366.79 378.6 366.79 342.85 287.33 378.6 207.88"/><path class="cls-2" d="M80,233.67a1,1,0,0,1,.79.3c.19.2.4.46.65.77l32.07,42.56-1.16-41.64q0-.56.75-.6c.55-.09,1.3-.19,2.22-.28s1.83-.14,2.7-.14c.49,0,.74.23.74.7l-1.12,45.25v8.49c0,.38-.24.58-.74.61s-1.18.1-1.88.14-1.4,0-2.11,0a1.1,1.1,0,0,1-.65-.16,1.92,1.92,0,0,1-.46-.53L79.53,246.29,80.69,289c0,.37-.24.57-.74.6s-1.32.17-2.3.24-1.85.09-2.62.09c-.49,0-.74-.23-.74-.7l1.16-48.36-3.81-5.2a.69.69,0,0,1-.18-.51c0-.4.28-.68.83-.83s1.13-.18,1.91-.26l2.34-.21c.79-.06,1.51-.11,2.16-.14S79.8,233.67,80,233.67Z"/><path class="cls-2" d="M140.47,272.33a15.68,15.68,0,0,0,.88,5.87,9.68,9.68,0,0,0,2.6,3.85,10,10,0,0,0,3.9,2.09,17.74,17.74,0,0,0,4.83.63,20.83,20.83,0,0,0,6.57-1.07,48.61,48.61,0,0,0,6.42-2.65V236.78a1.23,1.23,0,0,1,1.12-1.3c.49-.09,1.06-.17,1.69-.23s1.26-.12,1.88-.17l1.7-.11c.51,0,.88-.05,1.13-.05.75,0,1.12.39,1.12,1.16V288a1.2,1.2,0,0,1-1.12,1.3c-.52.09-1.09.17-1.69.25s-1.19.14-1.76.19l-1.56.09-1.07,0c-.71,0-1.08-.38-1.11-1.16l-.33-3.8a54.66,54.66,0,0,1-9.16,4,30.52,30.52,0,0,1-9.73,1.6,20,20,0,0,1-5.8-.83,13.13,13.13,0,0,1-4.75-2.56,12,12,0,0,1-3.21-4.38,15.42,15.42,0,0,1-1.18-6.29v-33.7a7.21,7.21,0,0,0-.26-2.11,2.87,2.87,0,0,0-.74-1.27,2.61,2.61,0,0,0-1.16-.65,5.43,5.43,0,0,0-1.51-.19,17.06,17.06,0,0,0-2,.14l-.28-2.55c1.67-.31,3.26-.58,4.76-.79s2.83-.39,4-.51,2.13-.22,2.9-.28,1.27-.09,1.49-.09a1.31,1.31,0,0,1,1.48,1.48Z"/><path class="cls-2" d="M197.79,282.08a15.8,15.8,0,0,0,.07,1.74,1.79,1.79,0,0,0,.37,1,1.56,1.56,0,0,0,1,.44,16.07,16.07,0,0,0,2,.09h6q3.71,0,6-.16a9.34,9.34,0,0,0,4-1.07,8.06,8.06,0,0,0,2.85-2.87,41.69,41.69,0,0,0,2.76-5.6l2.32.51a15.87,15.87,0,0,1-.21,1.68c-.14.89-.31,1.94-.53,3.13s-.47,2.4-.74,3.64-.56,2.32-.84,3.25a2.25,2.25,0,0,1-2.27,1.58l-4.09,0-5.27-.05-6.21,0-6.94,0h-7.71a.93.93,0,0,1-.88-.39,1.58,1.58,0,0,1-.23-.77v-44.6c0-1.58-.36-2.63-1.07-3.14a4.41,4.41,0,0,0-2.64-.76,15.29,15.29,0,0,0-2,.14l-.28-2.55c.65-.13,1.59-.28,2.83-.47l3.88-.56c1.34-.18,2.64-.34,3.9-.46s2.23-.19,2.94-.19h16.9c1,0,2.15,0,3.29,0s2.42,0,3.81-.07a.74.74,0,0,1,.83.7l.12,1.71c.05.72.08,1.49.12,2.33s.07,1.68.11,2.55.09,1.67.12,2.41,0,1.38.07,1.9,0,.86,0,1l-2.32.23a30.34,30.34,0,0,0-1.6-5.1,6,6,0,0,0-2.07-2.65,6.61,6.61,0,0,0-3.18-1c-1.28-.11-2.94-.16-5-.16h-8.17a11.27,11.27,0,0,0-1.19,0,1,1,0,0,0-.58.23.83.83,0,0,0-.21.53c0,.23,0,.55,0,1v18.8l7-.35,5.52-.28,3.78-.18c1-.05,1.55-.07,1.77-.07.86,0,1.3.46,1.3,1.39,0,.59,0,1.19-.1,1.81s-.14,1.29-.23,2l-19-.65Z"/><path class="cls-2" d="M271.17,236.87a2.14,2.14,0,0,1,1.53-1.39,8.34,8.34,0,0,1,1.39-.28c.5-.06,1-.12,1.44-.16s.89-.08,1.28-.1l.9,0a1,1,0,0,1,.68.16.58.58,0,0,1,.16.4,3.17,3.17,0,0,1-.23.79l-22.05,52.67c-.25.53-.51.81-.79.84s-.41.06-.76.09-.73.06-1.12.07l-1.11.05-.72,0a1,1,0,0,1-.54-.14,1.14,1.14,0,0,1-.44-.6l-18.28-47.11a5.9,5.9,0,0,0-2-2.92,4.63,4.63,0,0,0-2.62-.75c-.31,0-.62,0-.95,0s-.67.08-1,.14l-.28-2.55q2-.42,4.08-.72c1.36-.2,2.61-.37,3.74-.51l2.85-.33c.78-.07,1.27-.11,1.49-.11a1.18,1.18,0,0,1,1,.44,5.7,5.7,0,0,1,.65,1.23L256,279.34h.18Z"/><path class="cls-2" d="M285.7,269.82l-7.15,19.26a1,1,0,0,1-.84.61c-.55.06-1.19.1-1.9.14s-1.52,0-2.41,0c-.5,0-.75-.15-.75-.46a.52.52,0,0,1,.05-.23l21.26-51-1-2.7a2.46,2.46,0,0,1-.09-.51c0-.46.29-.74.88-.83s1.08-.18,1.74-.26l1.93-.21c.62-.06,1.19-.1,1.72-.13s.91-.05,1.16-.05a1.41,1.41,0,0,1,1.34,1.07l20.7,53.28a1.88,1.88,0,0,1,.14.51q0,.78-.93.93c-.55.09-1.18.17-1.88.25s-1.37.14-2,.19l-1.83.09-1.21,0a1.05,1.05,0,0,1-1.07-.69L306,269.5Zm1.48-3.94h17.41l-8.82-23Z"/><path class="cls-2" d="M83,301.17c-1.9,0-3.46.05-4.69.15a6.22,6.22,0,0,0-3.08,1,6.14,6.14,0,0,0-2,2.68,29.35,29.35,0,0,0-1.55,5.15l-2.18-.22c0-.12,0-.44,0-1s0-1.15.09-1.88.09-1.52.13-2.39.09-1.73.15-2.56.12-1.6.18-2.31.11-1.27.17-1.68.29-.65.79-.65q4,.09,7.59.13c2.41,0,4.64,0,6.67,0H99.77q3.06,0,6.72,0t7.64-.13a.64.64,0,0,1,.69.65c.06.41.11,1,.16,1.68s.08,1.48.13,2.31.08,1.68.11,2.56,0,1.67.06,2.39,0,1.36,0,1.88,0,.84,0,1l-2.18.22a32.79,32.79,0,0,0-1.51-5.15,6.1,6.1,0,0,0-1.94-2.68,5.91,5.91,0,0,0-3-1c-1.21-.1-2.77-.15-4.69-.15H96.46V347a1.13,1.13,0,0,1-1,1.23c-.5.08-1,.16-1.64.23s-1.17.14-1.74.18l-1.57.09-1.07,0c-.7,0-1-.36-1-1.09V301.17Z"/><path class="cls-2" d="M117.57,298.25c1.57-.29,3.06-.54,4.47-.74s2.67-.37,3.75-.48,2-.21,2.73-.26,1.19-.09,1.4-.09a1.23,1.23,0,0,1,1.39,1.39V347a1.12,1.12,0,0,1-1,1.23c-.5.08-1,.16-1.64.23s-1.18.14-1.74.18l-1.57.09-1.07,0c-.7,0-1-.36-1-1.09V304.49a6.79,6.79,0,0,0-.24-2,2.71,2.71,0,0,0-.7-1.2,2.55,2.55,0,0,0-1.09-.61,5.58,5.58,0,0,0-1.42-.17,13.76,13.76,0,0,0-1.92.13Z"/><path class="cls-2" d="M153.39,341.44c0,.7,0,1.24.06,1.64a1.68,1.68,0,0,0,.35.91,1.48,1.48,0,0,0,.94.42,16.94,16.94,0,0,0,1.83.08h5.63q3.5,0,5.67-.15a8.88,8.88,0,0,0,3.71-1,7.66,7.66,0,0,0,2.69-2.71,39.43,39.43,0,0,0,2.59-5.25l2.18.48a14.76,14.76,0,0,1-.19,1.57q-.19,1.26-.51,2.94c-.2,1.12-.43,2.26-.69,3.43s-.53,2.18-.79,3.05a2.11,2.11,0,0,1-2.14,1.48c-1.07,0-2.35,0-3.84,0l-4.95,0-5.84,0-6.53,0h-7.24a.88.88,0,0,1-.83-.37,1.49,1.49,0,0,1-.22-.72V305.19c0-1.49-.33-2.47-1-2.95a4.17,4.17,0,0,0-2.49-.72,13.37,13.37,0,0,0-1.87.13l-.26-2.4c.61-.11,1.49-.26,2.66-.43s2.38-.35,3.64-.53,2.49-.32,3.67-.43,2.1-.18,2.77-.18h15.88l3.09,0c1.08,0,2.27,0,3.58-.07a.7.7,0,0,1,.79.66c0,.41.06.94.11,1.61s.08,1.4.11,2.18.06,1.59.1,2.4.08,1.57.11,2.27.05,1.3.07,1.79,0,.8,0,.92l-2.18.22a28.49,28.49,0,0,0-1.51-4.8,5.6,5.6,0,0,0-1.94-2.49,6.25,6.25,0,0,0-3-.94c-1.2-.1-2.77-.15-4.69-.15h-7.67a10.47,10.47,0,0,0-1.12,0,.87.87,0,0,0-.54.22.76.76,0,0,0-.2.5c0,.22,0,.52,0,.9v17.67l6.57-.33,5.19-.26,3.55-.18,1.66-.06c.81,0,1.22.43,1.22,1.31,0,.55,0,1.12-.08,1.7s-.14,1.2-.22,1.87L153.39,324Z"/><path class="cls-2" d="M198.28,322a28.81,28.81,0,0,0,5.94-1,12,12,0,0,0,4.29-2.16,9.08,9.08,0,0,0,2.62-3.6A13.89,13.89,0,0,0,212,310a10.08,10.08,0,0,0-1-4.5,8.71,8.71,0,0,0-2.67-3.16,11.66,11.66,0,0,0-4-1.85,19.28,19.28,0,0,0-5-.61,9,9,0,0,0-2.62.28q-.87.29-.87,1.59V347a1.13,1.13,0,0,1-1.05,1.23c-.5.08-1,.16-1.64.23s-1.18.14-1.74.18l-1.57.09-1.07,0c-.7,0-1.05-.36-1.05-1.09V303.92c0-1.45-.32-2.42-1-2.9a4,4,0,0,0-2.48-.72,14.86,14.86,0,0,0-1.92.13l-.27-2.4c2.91-.49,5.93-.91,9.06-1.24a88.32,88.32,0,0,1,9.57-.5c1.4,0,2.87,0,4.41.17a34.23,34.23,0,0,1,4.54.65,24.24,24.24,0,0,1,4.23,1.33,12.15,12.15,0,0,1,3.51,2.23,10.33,10.33,0,0,1,2.4,3.32,10.82,10.82,0,0,1,.89,4.6,13.48,13.48,0,0,1-.85,5,12.23,12.23,0,0,1-2.35,3.82,15.18,15.18,0,0,1-3.51,2.84,25.86,25.86,0,0,1-4.32,2v.27a16.44,16.44,0,0,1,2.35.67,10.53,10.53,0,0,1,2.47,1.31,10.75,10.75,0,0,1,2.22,2.16,10.31,10.31,0,0,1,1.64,3.23l3.23,10a29.22,29.22,0,0,0,1.2,3.27A6.21,6.21,0,0,0,224,345a2.82,2.82,0,0,0,1.4.83,8.27,8.27,0,0,0,2,.2l.13,2.27c-.55.12-1.15.22-1.81.33s-1.3.18-1.94.24L222,349c-.51,0-.9.06-1.16.06a9,9,0,0,1-2.49-.32,5,5,0,0,1-2-1.14,7.53,7.53,0,0,1-1.55-2.14,18.52,18.52,0,0,1-1.24-3.33l-3.1-10.65a12.69,12.69,0,0,0-1.57-3.62,6.21,6.21,0,0,0-2.29-2.07,9.69,9.69,0,0,0-3.31-1c-1.3-.16-2.86-.27-4.7-.33Z"/><path class="cls-2" d="M245.27,322a28.6,28.6,0,0,0,5.93-1,12,12,0,0,0,4.3-2.16,9.08,9.08,0,0,0,2.62-3.6A14.08,14.08,0,0,0,259,310a10,10,0,0,0-1-4.5,8.68,8.68,0,0,0-2.66-3.16,11.66,11.66,0,0,0-4-1.85,19.36,19.36,0,0,0-5-.61,9,9,0,0,0-2.61.28c-.59.19-.88.72-.88,1.59V347a1.13,1.13,0,0,1-1,1.23c-.5.08-1,.16-1.64.23s-1.18.14-1.74.18l-1.58.09-1.06,0c-.7,0-1-.36-1-1.09V303.92c0-1.45-.32-2.42-1-2.9a4,4,0,0,0-2.49-.72,15.09,15.09,0,0,0-1.92.13l-.26-2.4c2.91-.49,5.93-.91,9.05-1.24a88.64,88.64,0,0,1,9.58-.5c1.4,0,2.86,0,4.41.17a33.85,33.85,0,0,1,4.53.65,23.71,23.71,0,0,1,4.23,1.33,12.34,12.34,0,0,1,3.52,2.23,10.33,10.33,0,0,1,2.4,3.32,11,11,0,0,1,.89,4.6,13.48,13.48,0,0,1-.85,5,12.26,12.26,0,0,1-2.36,3.82,14.77,14.77,0,0,1-3.51,2.84,25.86,25.86,0,0,1-4.32,2v.27a16.18,16.18,0,0,1,2.36.67,10.47,10.47,0,0,1,2.46,1.31,10.79,10.79,0,0,1,2.23,2.16,10.09,10.09,0,0,1,1.63,3.23l3.23,10a33.86,33.86,0,0,0,1.2,3.27A6.42,6.42,0,0,0,271,345a2.82,2.82,0,0,0,1.4.83,8.21,8.21,0,0,0,2,.2l.13,2.27c-.55.12-1.16.22-1.81.33s-1.3.18-1.94.24L269,349c-.51,0-.89.06-1.15.06a9,9,0,0,1-2.49-.32,4.93,4.93,0,0,1-2-1.14,7.53,7.53,0,0,1-1.55-2.14,17.79,17.79,0,0,1-1.24-3.33l-3.1-10.65a13,13,0,0,0-1.57-3.62,6.29,6.29,0,0,0-2.29-2.07,9.68,9.68,0,0,0-3.32-1c-1.29-.16-2.86-.27-4.69-.33Z"/><path class="cls-2" d="M287.72,329.92,281,348a.88.88,0,0,1-.79.56c-.52.06-1.12.11-1.78.14s-1.43,0-2.27,0c-.47,0-.7-.15-.7-.44a.51.51,0,0,1,0-.22l20-47.9-.91-2.53a2.28,2.28,0,0,1-.09-.48c0-.43.28-.7.83-.78s1-.17,1.64-.24,1.22-.14,1.81-.2,1.12-.1,1.61-.13.86,0,1.09,0a1.34,1.34,0,0,1,1.27,1l19.45,50.08a1.71,1.71,0,0,1,.13.48c0,.5-.29.79-.87.88s-1.11.16-1.76.23-1.3.14-1.92.18l-1.73.09-1.13,0a1,1,0,0,1-1-.66l-7.11-18.49Zm1.39-3.71h16.36l-8.28-21.64Z"/><path class="cls-2" d="M390.36,374.39H0l43.9-87.06L0,200.28H390.36l-39.17,87Zm-378-7.61H378.6l-35.75-79.45,35.75-79.45H12.35l40.06,79.45Z"/><path class="cls-2" d="M213,118.08c6.75,9.79,22,36.85,23.4,82.2h2.85c-1.37-46.16-17-73.81-23.91-83.82Z"/><path class="cls-2" d="M313.81,139.53,311,139.3c-.78,9.88-4.52,32.78-21.65,61h3.32C309.33,172.23,313,149.45,313.81,139.53Z"/><path class="cls-2" d="M302,150.29l-2.77-.67c-4.14,17.12-7.84,29.91-22.54,50.66h3.48C294.18,180.1,297.87,167.3,302,150.29Z"/><path class="cls-2" d="M80.84,139.3l-2.84.23c.78,9.92,4.48,32.7,21.16,60.75h3.33C85.36,172.08,81.62,149.18,80.84,139.3Z"/><path class="cls-2" d="M210.39,133.49c8.79,18.45,14.37,32,15,66.79h2.85c-.61-35.42-6.29-49.21-15.26-68Z"/><path class="cls-2" d="M92.6,149.62l-2.78.67c4.12,17,7.8,29.81,21.83,50h3.49C100.44,179.53,96.74,166.74,92.6,149.62Z"/><path class="cls-2" d="M348.1,187.11,346,185.24a79.92,79.92,0,0,1-18.1,15h5.22A79.9,79.9,0,0,0,348.1,187.11Z"/><path class="cls-2" d="M335.07,185.4c-7.52,6.19-13.69,10.87-23.73,14.88h7c7.1-3.54,12.38-7.61,18.53-12.68Z"/><path class="cls-2" d="M45.86,185.24l-2.15,1.87a79.63,79.63,0,0,0,15,13.17H64A80.18,80.18,0,0,1,45.86,185.24Z"/><path class="cls-2" d="M56.74,185.4l-1.82,2.2c6.15,5.06,11.42,9.14,18.53,12.68h7C70.42,196.27,64.26,191.59,56.74,185.4Z"/><path class="cls-2" d="M18.63,166.33a112.15,112.15,0,0,1,45.22-21.82,166.87,166.87,0,0,0,16.66,50.31c1,1.9,2,3.7,3,5.46h3.27Q84.85,197,83,193.41a162.93,162.93,0,0,1-16.6-99.16A161.19,161.19,0,0,1,154.59,127a173.67,173.67,0,0,0-14.47,73.24H143a167.92,167.92,0,0,1,3.66-39.1A163.9,163.9,0,0,1,195.83,74a162.86,162.86,0,0,1,49.63,87.43,161.2,161.2,0,0,1,3.32,38.86h2.85A164.69,164.69,0,0,0,248.28,161a167.68,167.68,0,0,0-10.91-34c26.21-19.67,55.82-30.67,88.06-32.68a162.85,162.85,0,0,1-16.61,99.16c-1.24,2.4-2.51,4.69-3.77,6.87h3.27c1-1.76,2-3.56,3-5.46A166.87,166.87,0,0,0,328,144.51a112.15,112.15,0,0,1,45.22,21.82,114.57,114.57,0,0,1-27.26,33.95h7.87a120.89,120.89,0,0,0,24.57-32.57l1.45-2.76-2.43-2a124.11,124.11,0,0,0-18.63-12.44c7.26-16.69,9.64-37,7.07-60.32l-.22-2.06-1.87-.93c-18.75-9.31-36.78-14-53.58-14a81.43,81.43,0,0,0-22.12,3,122.05,122.05,0,0,0-10.47-37.54l-1.29-2.84-3,.72A122.74,122.74,0,0,0,246,46.4C236.81,28.78,220.58,13.52,197.65,1l-1.83-1L194,1c-22.66,12.4-38.77,27.7-48,45.5a122.17,122.17,0,0,0-27.45-10l-3-.72-1.29,2.84a121.84,121.84,0,0,0-10.47,37.55,81.4,81.4,0,0,0-22.17-3c-16.79,0-34.82,4.72-53.57,14l-1.87.93L26,90.23c-2.57,23.37-.19,43.64,7.07,60.34A124.13,124.13,0,0,0,14.43,163L12,165l1.45,2.76A121.08,121.08,0,0,0,38,200.28h7.91A113.64,113.64,0,0,1,18.63,166.33Zm267.51-84.1c15.3-5.14,40.36-7.43,74.57,9.35,2.42,23-.13,42.71-7.57,58.7l1.28.6,0,.08a110.46,110.46,0,0,0-10.53-4.65,70.48,70.48,0,0,0,7.74-24.85l-2.83-.31a67.82,67.82,0,0,1-7.61,24.18q-3.11-1.1-6.27-2c3.56-5.78,5.53-11.72,7.51-18.28l-2.73-.82c-2,6.63-4,12.6-7.66,18.32-1.2-.31-2.4-.6-3.61-.87a166.53,166.53,0,0,0-.33-49.14l-.2-1.28-1.29.07a165,165,0,0,0-40.78,7.35A108.93,108.93,0,0,0,286.14,82.23ZM273.29,41.88c8.43,19,11.63,38.38,9.54,57.76q-4.15,1.39-8.24,3a86.09,86.09,0,0,0-.31-28.22l-2.8.55a84.38,84.38,0,0,1,0,28.93c-1.74.73-3.46,1.49-5.18,2.29,1.65-8.06,1.65-14.82,1.43-22.62l-2.85.07c.23,8.3.23,15.38-1.84,24.1a172,172,0,0,0-26.93,16.51A164.57,164.57,0,0,0,209.59,83.9C220.56,69,240.4,50,273.29,41.88ZM195.83,6C218.42,18.43,234.07,33.58,242.41,51q-4.66,2.64-8.79,5.53a70.54,70.54,0,0,0-18.5-26l-1.88,2.15a67.76,67.76,0,0,1,18,25.58q-2.94,2.18-5.61,4.41c-2.64-9.14-7.21-15.42-12.82-22.53l-2.24,1.77c5.87,7.42,10.24,13.47,12.67,22.83a114.15,114.15,0,0,0-15.6,17c-3.35-3.63-7-7.23-10.85-10.75l-.95-.86-1,.86q-5.77,5.25-10.74,10.69a112.75,112.75,0,0,0-34.54-30.57C158,33.5,173.52,18.31,195.83,6ZM118.52,41.88c32.79,8,52.61,27,63.66,42a164.19,164.19,0,0,0-26.39,40.52,171.9,171.9,0,0,0-27.07-16.61c-2.07-8.73-2.07-15.81-1.84-24.1L124,83.59c-.22,7.79-.23,14.56,1.42,22.62-1.71-.8-3.44-1.56-5.17-2.29a84.38,84.38,0,0,1,0-28.93l-2.8-.55a86.09,86.09,0,0,0-.31,28.22c-2.73-1.08-5.47-2.09-8.25-3C106.89,80.26,110.09,60.84,118.52,41.88ZM31.06,91.58c19.08-9.35,47.23-18.41,74.28-9.45l.33.12A108.67,108.67,0,0,0,106,98.68a165,165,0,0,0-40.78-7.35L64,91.26l-.2,1.28a166.9,166.9,0,0,0-.34,49.14c-1.22.27-2.43.57-3.64.88-3.67-5.72-5.66-11.7-7.66-18.33l-2.73.82c2,6.56,3.95,12.5,7.52,18.29-2.11.6-4.2,1.27-6.26,2A67.4,67.4,0,0,1,43,121.15l-2.84.31a70.57,70.57,0,0,0,7.76,24.86q-4.69,1.8-9.26,4C31.21,134.33,28.64,114.59,31.06,91.58Z"/></g></g></svg>