<svg xmlns="http://www.w3.org/2000/svg" viewBox="0 0 84.56 85"><defs><style>.cls-1{fill:#4f2c1d;}</style></defs><title>NUEVATIERRA_llamar</title><g id="Capa_2" data-name="Capa 2"><g id="Capa_1-2" data-name="Capa 1"><path id="icon_telefono" data-name="icon telefono" class="cls-1" d="M71.17,50.67a8.85,8.85,0,0,0-6.43-3,9.15,9.15,0,0,0-6.51,2.93l-6,6c-.49-.27-1-.52-1.47-.76-.68-.34-1.33-.67-1.88-1A65.51,65.51,0,0,1,33.2,40.59a38.75,38.75,0,0,1-5.14-8.11c1.56-1.43,3-2.92,4.42-4.34l1.6-1.62a8.74,8.74,0,0,0,.85-12.33,11.36,11.36,0,0,0-.85-.85l-5.2-5.2c-.59-.59-1.2-1.19-1.77-1.8C26,5.16,24.77,3.94,23.53,2.8A9,9,0,0,0,17.15,0a9.3,9.3,0,0,0-6.47,2.8l0,0L4.17,9.37A14,14,0,0,0,0,18.22,33.5,33.5,0,0,0,2.47,32.35,82,82,0,0,0,17,56.64,89.67,89.67,0,0,0,46.87,80,46.64,46.64,0,0,0,63.63,85c.4,0,.82,0,1.2,0a14.34,14.34,0,0,0,11-4.72s0,0,.07-.09a43.49,43.49,0,0,1,3.34-3.45c.81-.78,1.65-1.6,2.47-2.46a9.49,9.49,0,0,0,2.85-6.58,9.17,9.17,0,0,0-2.93-6.53Zm6.82,20h0c-.75.8-1.51,1.52-2.32,2.32A52.91,52.91,0,0,0,72,76.85a9.13,9.13,0,0,1-7.15,3H64a41.15,41.15,0,0,1-14.85-4.45,84.44,84.44,0,0,1-28.1-22A77,77,0,0,1,7.3,30.57,27.17,27.17,0,0,1,5.18,18.66,8.75,8.75,0,0,1,7.81,13L14.3,6.51a4.3,4.3,0,0,1,2.9-1.35A4.08,4.08,0,0,1,20,6.49l.05.06c1.17,1.08,2.27,2.2,3.43,3.4l1.81,1.85,5.2,5.2a3.66,3.66,0,0,1,0,5.93c-.56.55-1.09,1.1-1.64,1.63-1.6,1.64-3.12,3.16-4.78,4.66l-.1.09a3.89,3.89,0,0,0-1,4.32l.06.18a41.7,41.7,0,0,0,6.16,10h0A69.63,69.63,0,0,0,46.1,59.22a24.08,24.08,0,0,0,2.34,1.27c.69.35,1.33.67,1.89,1l.23.14a4.09,4.09,0,0,0,1.88.47,4,4,0,0,0,2.89-1.31l6.51-6.51a4.32,4.32,0,0,1,2.88-1.43,3.88,3.88,0,0,1,2.74,1.39L78,64.78a3.77,3.77,0,0,1,.68,5.29,3.32,3.32,0,0,1-.68.67Z"/></g></g></svg>